<svg width="1512" height="1261" viewBox="0 0 1512 1261" fill="none" xmlns="http://www.w3.org/2000/svg">
<path d="M151.2 0V454.356M302.4 0V454.356M453.6 0V454.356M604.8 0V454.356M756 151.2L0 151.2M756 302.4H0" stroke="#1D211D"/>
<path d="M146.664 146.664L155.736 155.736M155.736 146.664L146.664 155.736" stroke="#1D211D" stroke-linecap="round" stroke-linejoin="round"/>
<path d="M449.064 297.864L458.136 306.936M458.136 297.864L449.064 306.936" stroke="#1D211D" stroke-linecap="round" stroke-linejoin="round"/>
<path d="M600.264 146.664L609.336 155.736M609.336 146.664L600.264 155.736" stroke="#1D211D" stroke-linecap="round" stroke-linejoin="round"/>
<rect x="453.6" y="151.2" width="151.2" height="151.2" fill="#172719" fill-opacity="0.3"/>
<rect x="151.2" width="151.2" height="151.2" fill="#172719" fill-opacity="0.3"/>
<rect x="302.4" y="302.4" width="151.2" height="151.2" fill="#172719" fill-opacity="0.3"/>
<g filter="url(#filter0_f_93_2)">
<path d="M1425.43 144.847C1441 172.617 1337.88 202.876 1214.79 269.13C1091.69 335.385 1001.81 410.385 986.232 382.615C970.655 354.844 1038.36 256.95 1161.45 190.696C1284.54 124.441 1409.85 117.077 1425.43 144.847Z" fill="url(#paint0_linear_93_2)" fill-opacity="0.8"/>
</g>
<g style="mix-blend-mode:plus-lighter" filter="url(#filter1_f_93_2)">
<path d="M1400.89 134.662C1406.83 145.262 1308.79 162.069 1197.72 221.851C1086.65 281.633 1007.05 360.8 1001.1 350.2C995.156 339.6 1062.59 248.003 1173.65 188.221C1284.72 128.439 1394.94 124.062 1400.89 134.662Z" fill="white" fill-opacity="0.8"/>
</g>
<g style="mix-blend-mode:overlay" filter="url(#filter2_f_93_2)">
<path d="M1409.39 162.675C1420.1 181.779 1309.63 176.424 1198.56 236.206C1087.5 295.988 1020.44 397.535 1009.73 378.431C999.011 359.328 1047.33 233.652 1158.39 173.871C1269.46 114.089 1398.67 143.571 1409.39 162.675Z" fill="white" fill-opacity="0.8"/>
</g>
<path d="M1496.78 120.226L1609.37 315.236L1042.38 642.587L929.957 447.86C969.995 353.055 1051.42 261.293 1163.22 196.747C1274.82 132.314 1394.78 107.651 1496.78 120.226Z" fill="url(#paint1_radial_93_2)"/>
<g opacity="0.87" filter="url(#filter3_f_93_2)">
<path d="M1174.1 216.367C1120.13 242.968 1083.42 276.255 1078.09 266.618C1072.76 256.981 1100.82 208.069 1154.79 181.468C1208.76 154.868 1264.83 154.42 1270.17 164.057C1275.5 173.694 1228.07 189.766 1174.1 216.367Z" fill="url(#paint2_linear_93_2)"/>
</g>
<g style="mix-blend-mode:plus-lighter" opacity="0.87" filter="url(#filter4_f_93_2)">
<path d="M1162.16 199.687C1059.81 250.132 1007.34 331.127 1006.11 328.906C1004.88 326.684 1055.36 242.089 1157.71 191.643C1260.06 141.198 1366.15 128.005 1367.38 130.226C1368.61 132.447 1264.51 149.242 1162.16 199.687Z" fill="#50FF47"/>
</g>
<path d="M785.504 439.587V982M966.007 439.587V982M1146.51 439.587V982M1327.01 439.587V982M1507.52 620.09L605 620.09M1507.52 800.594H605" stroke="#1D211D"/>
<path d="M780.089 614.675L790.919 625.506M790.918 614.675L780.088 625.506" stroke="#1D211D" stroke-linecap="round" stroke-linejoin="round"/>
<path d="M1141.1 795.179L1151.93 806.009M1151.93 795.179L1141.1 806.009" stroke="#1D211D" stroke-linecap="round" stroke-linejoin="round"/>
<path d="M1321.6 614.675L1332.43 625.506M1332.43 614.675L1321.6 625.506" stroke="#1D211D" stroke-linecap="round" stroke-linejoin="round"/>
<rect x="1146.51" y="620.09" width="180.504" height="180.504" fill="#172719" fill-opacity="0.3"/>
<rect x="785.504" y="439.587" width="180.504" height="180.504" fill="#172719" fill-opacity="0.3"/>
<rect x="966.007" y="800.594" width="180.504" height="180.504" fill="#172719" fill-opacity="0.3"/>
<g filter="url(#filter5_f_93_2)">
<path d="M573.12 853.46C546.004 899.107 416.331 775.415 218.031 652.901C19.7303 530.388 -163.514 463.119 -136.399 417.472C-109.284 371.825 88.5262 387.975 286.827 510.488C485.127 633.002 600.235 807.813 573.12 853.46Z" fill="url(#paint3_linear_93_2)" fill-opacity="0.8"/>
</g>
<g style="mix-blend-mode:plus-lighter" filter="url(#filter6_f_93_2)">
<path d="M567.368 809.531C557.018 826.955 451.004 699.385 272.077 588.84C93.1499 478.296 -87.5441 429.342 -77.1942 411.919C-66.8444 394.495 121.647 415.502 300.574 526.046C479.502 636.591 577.718 792.107 567.368 809.531Z" fill="white" fill-opacity="0.8"/>
</g>
<g style="mix-blend-mode:overlay" filter="url(#filter7_f_93_2)">
<path d="M534.004 845.165C515.351 876.567 430.976 712.569 252.049 602.024C73.1218 491.48 -129.424 479.312 -110.771 447.911C-92.1177 416.509 129.647 381.502 308.574 492.046C487.502 602.591 552.657 813.764 534.004 845.165Z" fill="white" fill-opacity="0.8"/>
</g>
<path d="M668.165 934.975L480.428 1260.14L-465 714.302L-277.536 389.604C-107.251 368.379 93.147 409.46 279.564 517.088C465.653 624.527 601.279 777.188 668.165 934.975Z" fill="url(#paint4_radial_93_2)"/>
<g opacity="0.87" filter="url(#filter8_f_93_2)">
<path d="M260.304 550.16C176.892 494.399 98.2222 469.148 107.693 453.414C117.164 437.679 211.189 437.42 294.601 493.181C378.012 548.941 425.405 629.536 415.934 645.27C406.463 661.004 343.715 605.921 260.304 550.16Z" fill="url(#paint5_linear_93_2)"/>
</g>
<g style="mix-blend-mode:plus-lighter" opacity="0.87" filter="url(#filter9_f_93_2)">
<path d="M274.437 519.012C116.257 413.268 -44.4506 405.024 -42.2677 401.397C-40.0847 397.77 124.162 400.135 282.342 505.879C440.521 611.623 548.021 753.821 545.838 757.447C543.655 761.074 432.616 624.757 274.437 519.012Z" fill="#50FF47"/>
</g>
<defs>
<filter id="filter0_f_93_2" x="883.524" y="29.1175" width="643.965" height="459.936" filterUnits="userSpaceOnUse" color-interpolation-filters="sRGB">
<feFlood flood-opacity="0" result="BackgroundImageFix"/>
<feBlend mode="normal" in="SourceGraphic" in2="BackgroundImageFix" result="shape"/>
<feGaussianBlur stdDeviation="50.25" result="effect1_foregroundBlur_93_2"/>
</filter>
<filter id="filter1_f_93_2" x="968.138" y="97.5415" width="465.605" height="286.221" filterUnits="userSpaceOnUse" color-interpolation-filters="sRGB">
<feFlood flood-opacity="0" result="BackgroundImageFix"/>
<feBlend mode="normal" in="SourceGraphic" in2="BackgroundImageFix" result="shape"/>
<feGaussianBlur stdDeviation="16.3" result="effect1_foregroundBlur_93_2"/>
</filter>
<filter id="filter2_f_93_2" x="975.67" y="105.711" width="467.04" height="307.677" filterUnits="userSpaceOnUse" color-interpolation-filters="sRGB">
<feFlood flood-opacity="0" result="BackgroundImageFix"/>
<feBlend mode="normal" in="SourceGraphic" in2="BackgroundImageFix" result="shape"/>
<feGaussianBlur stdDeviation="16.3" result="effect1_foregroundBlur_93_2"/>
</filter>
<filter id="filter3_f_93_2" x="983.15" y="64.0155" width="381.726" height="298.603" filterUnits="userSpaceOnUse" color-interpolation-filters="sRGB">
<feFlood flood-opacity="0" result="BackgroundImageFix"/>
<feBlend mode="normal" in="SourceGraphic" in2="BackgroundImageFix" result="shape"/>
<feGaussianBlur stdDeviation="47.15" result="effect1_foregroundBlur_93_2"/>
</filter>
<filter id="filter4_f_93_2" x="937.688" y="61.5937" width="498.103" height="335.757" filterUnits="userSpaceOnUse" color-interpolation-filters="sRGB">
<feFlood flood-opacity="0" result="BackgroundImageFix"/>
<feBlend mode="normal" in="SourceGraphic" in2="BackgroundImageFix" result="shape"/>
<feGaussianBlur stdDeviation="34.2" result="effect1_foregroundBlur_93_2"/>
</filter>
<filter id="filter5_f_93_2" x="-239.575" y="293.572" width="917.125" height="670.084" filterUnits="userSpaceOnUse" color-interpolation-filters="sRGB">
<feFlood flood-opacity="0" result="BackgroundImageFix"/>
<feBlend mode="normal" in="SourceGraphic" in2="BackgroundImageFix" result="shape"/>
<feGaussianBlur stdDeviation="50.25" result="effect1_foregroundBlur_93_2"/>
</filter>
<filter id="filter6_f_93_2" x="-110.219" y="373.885" width="710.93" height="469.853" filterUnits="userSpaceOnUse" color-interpolation-filters="sRGB">
<feFlood flood-opacity="0" result="BackgroundImageFix"/>
<feBlend mode="normal" in="SourceGraphic" in2="BackgroundImageFix" result="shape"/>
<feGaussianBlur stdDeviation="16.3" result="effect1_foregroundBlur_93_2"/>
</filter>
<filter id="filter7_f_93_2" x="-144.569" y="384.093" width="714.247" height="497.597" filterUnits="userSpaceOnUse" color-interpolation-filters="sRGB">
<feFlood flood-opacity="0" result="BackgroundImageFix"/>
<feBlend mode="normal" in="SourceGraphic" in2="BackgroundImageFix" result="shape"/>
<feGaussianBlur stdDeviation="16.3" result="effect1_foregroundBlur_93_2"/>
</filter>
<filter id="filter8_f_93_2" x="12.6164" y="350.018" width="498.813" height="392.279" filterUnits="userSpaceOnUse" color-interpolation-filters="sRGB">
<feFlood flood-opacity="0" result="BackgroundImageFix"/>
<feBlend mode="normal" in="SourceGraphic" in2="BackgroundImageFix" result="shape"/>
<feGaussianBlur stdDeviation="47.15" result="effect1_foregroundBlur_93_2"/>
</filter>
<filter id="filter9_f_93_2" x="-110.69" y="332.093" width="724.96" height="493.825" filterUnits="userSpaceOnUse" color-interpolation-filters="sRGB">
<feFlood flood-opacity="0" result="BackgroundImageFix"/>
<feBlend mode="normal" in="SourceGraphic" in2="BackgroundImageFix" result="shape"/>
<feGaussianBlur stdDeviation="34.2" result="effect1_foregroundBlur_93_2"/>
</filter>
<linearGradient id="paint0_linear_93_2" x1="1325.15" y1="140.411" x2="1160.16" y2="409.792" gradientUnits="userSpaceOnUse">
<stop stop-color="#00FFFF"/>
<stop offset="0.825" stop-color="#A4FF9F"/>
<stop offset="1" stop-color="#00FF6A"/>
</linearGradient>
<radialGradient id="paint1_radial_93_2" cx="0" cy="0" r="1" gradientUnits="userSpaceOnUse" gradientTransform="translate(1217.49 291.187) rotate(-120) scale(108.925 218.961)">
<stop stop-color="#0E0F0E"/>
<stop offset="1" stop-color="#0E0F0E"/>
</radialGradient>
<linearGradient id="paint2_linear_93_2" x1="1115.47" y1="256.307" x2="1100.59" y2="192.211" gradientUnits="userSpaceOnUse">
<stop stop-color="#00FFFF"/>
<stop offset="1" stop-color="#00FF6A"/>
</linearGradient>
<linearGradient id="paint3_linear_93_2" x1="495.924" y1="704.96" x2="-30.6344" y2="691.295" gradientUnits="userSpaceOnUse">
<stop stop-color="#00FFFF"/>
<stop offset="0.825" stop-color="#A4FF9F"/>
<stop offset="1" stop-color="#00FF6A"/>
</linearGradient>
<radialGradient id="paint4_radial_93_2" cx="0" cy="0" r="1" gradientUnits="userSpaceOnUse" gradientTransform="translate(188.437 674.202) rotate(-60) scale(181.627 365.107)">
<stop stop-color="#0E0F0E"/>
<stop offset="1" stop-color="#0E0F0E"/>
</radialGradient>
<linearGradient id="paint5_linear_93_2" x1="153.749" y1="498.8" x2="233.9" y2="423.87" gradientUnits="userSpaceOnUse">
<stop stop-color="#00FFFF"/>
<stop offset="1" stop-color="#00FF6A"/>
</linearGradient>
</defs>
</svg>
